<?xml version="1.0" encoding="UTF-8"?>
<svg width="120px" height="40px" viewBox="0 0 120 40" version="1.1" xmlns="http://www.w3.org/2000/svg" xmlns:xlink="http://www.w3.org/1999/xlink">
    <!-- Generator: Sketch 61.2 (89653) - https://sketch.com -->
    <title>Download_on_the_App_Store_Badge_US-UK_blk_092917</title>
    <desc>Created with Sketch.</desc>
    <g id="Page-1" stroke="none" stroke-width="1" fill="none" fill-rule="evenodd">
        <g id="Download_on_the_App_Store_Badge_US-UK_blk_092917" fill-rule="nonzero">
            <path d="M110.13,0 L7.52,0 C6.84979114,0.0103027073 6.1812783,0.0704688633 5.52,0.18 C4.85883915,0.294257741 4.21844492,0.506598984 3.62,0.81 C3.01761759,1.11387733 2.47011214,1.51605726 2,2 C1.51961929,2.47088551 1.12085154,3.01834633 0.82,3.62 C0.516598984,4.21844492 0.304257741,4.85883915 0.19,5.52 C0.0784043777,6.18085408 0.0215446887,6.84979159 0.02,7.52 C0.02,7.83 0.02,8.14 0.02,8.44 L0.02,31.56 C0.02,31.87 0.02,32.17 0.02,32.48 C0.0215446887,33.1502084 0.0784043777,33.8191459 0.19,34.48 C0.304166008,35.1443744 0.516487773,35.7880801 0.82,36.39 C1.12364246,36.9869703 1.52215621,37.5307052 2,38 C2.47088551,38.4803807 3.01834633,38.8791485 3.62,39.18 C4.21844492,39.483401 4.85883915,39.6957423 5.52,39.81 C6.1812783,39.9195311 6.84979114,39.9796973 7.52,39.99 L112.14,39.99 C112.810232,39.9801447 113.478778,39.9199755 114.14,39.81 C114.803984,39.6942735 115.447465,39.4820258 116.05,39.18 C116.650052,38.8765224 117.197106,38.4780505 117.67,38 C118.141749,37.525462 118.539523,36.9827374 118.85,36.39 C119.145862,35.7858207 119.354604,35.1427598 119.47,34.48 C119.579976,33.8187785 119.640145,33.1502323 119.65,32.48 C119.65,32.17 119.65,31.87 119.65,31.56 L119.65,8.44 C119.65,8.14 119.65,7.83 119.65,7.52 C119.640145,6.84976768 119.579976,6.1812215 119.47,5.52 C119.354609,4.86043766 119.145845,4.22067728 118.85,3.62 C118.542236,3.02258047 118.144231,2.47616584 117.67,2 C117.197106,1.52194946 116.650052,1.12347762 116.05,0.82 C115.447465,0.517974161 114.803984,0.305726517 114.14,0.19 C113.478778,0.0800244753 112.810232,0.0198553194 112.14,0.01 L110.14,0.01 L110.13,0 Z" id="Path" fill="#B7B7B7"></path>
            <path d="M8.44,39.12 L7.54,39.12 C6.91444226,39.1308463 6.28904053,39.0907135 5.67,39 C5.08622717,38.8854839 4.52317193,38.6831886 4,38.4 C3.48420626,38.1464078 3.01440561,37.8084217 2.61,37.4 C2.20110026,36.9922174 1.8631242,36.5190509 1.61,36 C1.34368099,35.4777035 1.15823299,34.9179877 1.06,34.34 C0.95833154,33.7217493 0.904837328,33.0965357 0.9,32.47 C0.9,32.26 0.9,31.55 0.9,31.55 L0.9,8.44 C0.9,8.44 0.9,7.75 0.9,7.55 C0.904431281,6.92344545 0.957928193,6.29820028 1.06,5.68 C1.15153931,5.09532572 1.33372982,4.52851079 1.6,4 C1.85097135,3.47967058 2.18919261,3.00616082 2.6,2.6 C3.01153269,2.19554348 3.48393593,1.85811259 4,1.6 C4.52229654,1.33368099 5.08201231,1.14823299 5.66,1.05 C6.28154685,0.947814301 6.91012402,0.894318371 7.54,0.89 L112.13,0.89 C112.753199,0.895273694 113.375056,0.948766726 113.99,1.05 C114.570654,1.15033347 115.133361,1.33565612 115.66,1.6 C116.697137,2.12471302 117.540979,2.96505392 118.07,4 C118.330107,4.52047435 118.512064,5.0764515 118.61,5.65 C118.709887,6.27200482 118.766689,6.90016656 118.78,7.53 L118.78,8.42 C118.78,8.8 118.78,9.16 118.78,9.52 L118.78,30.46 C118.78,30.83 118.78,31.18 118.78,31.54 L118.78,32.47 C118.767119,33.089909 118.71031,33.7081251 118.61,34.32 C118.515006,34.9006549 118.332957,35.4636565 118.07,35.99 C117.812425,36.5033939 117.47488,36.9725812 117.07,37.38 C116.662217,37.7888997 116.189051,38.1268758 115.67,38.38 C115.150053,38.6746053 114.586229,38.8839292 114,39 C113.382056,39.1041056 112.756648,39.1576165 112.13,39.16 L8.44,39.16 L8.44,39.12 Z" id="Path" fill="#000000"></path>
            <path d="M24.77,20.3 C24.7878389,18.6021062 25.6799156,17.033412 27.13,16.15 C26.2111796,14.8403051 24.7290732,14.0399676 23.13,13.99 C21.46,13.81 19.83,14.99 18.97,14.99 C18.11,14.99 16.78,13.99 15.36,13.99 C13.4936234,14.0507149 11.7963194,15.0873234 10.89,16.72 C9,20.11 10.4,25 12.25,27.74 C13.18,29.07 14.25,30.55 15.68,30.49 C17.11,30.43 17.58,29.61 19.26,29.61 C20.94,29.61 21.4,30.49 22.85,30.46 C24.3,30.43 25.28,29.13 26.17,27.79 C26.834467,26.8454268 27.347315,25.8028608 27.69,24.7 C25.9195389,23.9550324 24.7686452,22.2208091 24.77,20.3 Z" id="Path" fill="#FFFFFF"></path>
            <path d="M22,12.21 C22.8081052,11.2343686 23.2060423,9.9831969 23.11,8.72 C21.8704629,8.85377961 20.725621,9.44581624 19.9,10.38 C19.0908395,11.3053016 18.680967,12.5133471 18.76,13.74 C20.0171646,13.7523921 21.2108537,13.1887055 22,12.21 Z" id="Path" fill="#FFFFFF"></path>
            <path d="M42.3,27.14 L37.57,27.14 L36.43,30.5 L34.43,30.5 L38.91,18.08 L41,18.08 L45.48,30.5 L43.48,30.5 L42.3,27.14 Z M38.06,25.59 L41.81,25.59 L40,20.14 L39.95,20.14 L38.06,25.59 Z" id="Shape" fill="#FFFFFF"></path>
            <path d="M55.16,26 C55.16,28.81 53.65,30.62 51.38,30.62 C50.198242,30.6699801 49.0916417,30.0409653 48.53,29 L48.53,29 L48.53,33.48 L46.63,33.48 L46.63,21.48 L48.43,21.48 L48.43,23 L48.43,23 C49.0255356,21.9755187 50.1356446,21.3609255 51.32,21.4 C53.65,21.35 55.16,23.16 55.16,26 Z M53.25,26 C53.25,24.17 52.25,23 50.86,23 C49.47,23 48.48,24.23 48.48,26 C48.48,27.77 49.48,29.05 50.86,29.05 C52.24,29.05 53.25,27.82 53.25,26 Z" id="Shape" fill="#FFFFFF"></path>
            <path d="M65.12,26 C65.12,28.81 63.62,30.62 61.35,30.62 C60.1676548,30.6724132 59.0598516,30.0427145 58.5,29 L58.5,29 L58.5,33.48 L56.6,33.48 L56.6,21.48 L58.4,21.48 L58.4,23 L58.4,23 C58.9938136,21.9787419 60.0991812,21.3646488 61.28,21.4 C63.61,21.35 65.12,23.16 65.12,26 Z M63.21,26 C63.21,24.17 62.27,23 60.82,23 C59.37,23 58.45,24.23 58.45,26 C58.45,27.77 59.4,29 60.82,29 C62.24,29 63.21,27.82 63.21,26 L63.21,26 Z" id="Shape" fill="#FFFFFF"></path>
            <path d="M71.71,27 C71.85,28.23 73.04,29 74.71,29 C76.38,29 77.4,28.19 77.4,27.08 C77.4,25.97 76.72,25.54 75.11,25.14 L73.5,24.75 C71.22,24.2 70.17,23.14 70.17,21.41 C70.17,19.26 72.03,17.79 74.68,17.79 C77.33,17.79 79.11,19.26 79.17,21.41 L77.26,21.41 C77.15,20.17 76.12,19.41 74.63,19.41 C73.14,19.41 72.11,20.16 72.11,21.27 C72.11,22.14 72.76,22.66 74.36,23.06 L75.73,23.39 C78.28,23.99 79.34,25.02 79.34,26.83 C79.34,29.16 77.48,30.61 74.54,30.61 C71.79,30.61 69.93,29.19 69.81,26.95 L71.71,27 Z" id="Path" fill="#FFFFFF"></path>
            <path d="M83.35,19.3 L83.35,21.44 L85.07,21.44 L85.07,22.91 L83.35,22.91 L83.35,27.91 C83.35,28.68 83.69,29.04 84.45,29.04 C84.6531438,29.0524149 84.8568562,29.0524149 85.06,29.04 L85.06,30.5 C84.7303415,30.562124 84.3954535,30.5922639 84.06,30.59 C82.22,30.59 81.51,29.9 81.51,28.14 L81.51,22.91 L80.16,22.91 L80.16,21.44 L81.48,21.44 L81.48,19.3 L83.35,19.3 Z" id="Path" fill="#FFFFFF"></path>
            <path d="M86.06,26 C86.06,23.15 87.74,21.36 90.36,21.36 C92.98,21.36 94.65,23.15 94.65,26 C94.65,28.85 93,30.61 90.36,30.61 C87.72,30.61 86.06,28.83 86.06,26 Z M92.76,26 C92.76,24.05 91.86,22.89 90.36,22.89 C88.86,22.89 88,24 88,26 C88,28 88.89,29.11 90.4,29.11 C91.91,29.11 92.76,27.93 92.76,26 Z" id="Shape" fill="#FFFFFF"></path>
            <path d="M96.19,21.44 L98,21.44 L98,23 L98,23 C98.249837,22.0095502 99.1593284,21.3295176 100.18,21.37 C100.395419,21.3665197 100.610426,21.390036 100.82,21.44 L100.82,23.18 C100.559556,23.071681 100.281867,23.0107248 100,23 C99.434391,22.9585583 98.880299,23.1746587 98.492096,23.5880949 C98.1038931,24.001531 97.9230682,24.568117 98,25.13 L98,30.5 L96.19,30.5 L96.19,21.44 Z" id="Path" fill="#FFFFFF"></path>
            <path d="M109.38,27.84 C109.13,29.48 107.53,30.61 105.49,30.61 C102.85,30.61 101.22,28.84 101.22,26.01 C101.22,23.18 102.86,21.33 105.41,21.33 C107.96,21.33 109.49,23.05 109.49,25.8 L109.49,26.43 L103.09,26.43 L103.09,26.55 C103.0322,27.2239388 103.266355,27.8902832 103.733037,28.3799175 C104.19972,28.8695518 104.854064,29.1354033 105.53,29.11 C106.430548,29.1940759 107.279779,28.6780362 107.62,27.84 L109.38,27.84 Z M103.1,25.13 L107.63,25.13 C107.66368,24.5251946 107.443033,23.9338403 107.021407,23.49892 C106.599781,23.0639997 106.015559,22.8251057 105.41,22.84 C104.8,22.8373421 104.213929,23.0771174 103.780719,23.5065769 C103.347509,23.9360365 103.102646,24.5200003 103.1,25.13 Z" id="Shape" fill="#FFFFFF"></path>
            <path d="M37.83,8.73 C38.6246152,8.67400735 39.4020289,8.97980185 39.9455537,9.56214989 C40.4890785,10.1444979 40.7405956,10.9411292 40.63,11.73 C40.63,13.63 39.63,14.73 37.83,14.73 L35.67,14.73 L35.67,8.73 L37.83,8.73 Z M36.6,13.85 L37.72,13.85 C38.2886578,13.8959121 38.847168,13.6797238 39.2367136,13.2629099 C39.6262593,12.8460961 39.8042233,12.2742571 39.72,11.71 C39.8002668,11.1465274 39.6209446,10.5770268 39.2323189,10.1611973 C38.8436932,9.74536777 38.2876078,9.52798228 37.72,9.57 L36.6,9.57 L36.6,13.85 Z" id="Shape" fill="#FFFFFF"></path>
            <path d="M41.68,12.44 C41.6255012,11.6460166 42.0181842,10.8878799 42.6981425,10.4743145 C43.3781009,10.0607491 44.2318991,10.0607491 44.9118575,10.4743145 C45.5918158,10.8878799 45.9844988,11.6460166 45.93,12.44 C45.9844988,13.2339834 45.5918158,13.9921201 44.9118575,14.4056855 C44.2318991,14.8192509 43.3781009,14.8192509 42.6981425,14.4056855 C42.0181842,13.9921201 41.6255012,13.2339834 41.68,12.44 L41.68,12.44 Z M45.01,12.44 C45.01,11.44 44.58,10.9 43.81,10.9 C43.04,10.9 42.6,11.47 42.6,12.44 C42.6,13.41 43,14 43.81,14 C44.62,14 45,13.42 45,12.44 L45.01,12.44 Z" id="Shape" fill="#FFFFFF"></path>
            <polygon id="Path" fill="#FFFFFF" points="51.57 14.7 50.65 14.7 49.72 11.38 49.65 11.38 48.72 14.7 47.81 14.7 46.57 10.19 47.47 10.19 48.28 13.63 48.34 13.63 49.27 10.19 50.12 10.19 51.05 13.63 51.12 13.63 51.92 10.19 52.81 10.19"></polygon>
            <path d="M53.85,10.19 L54.71,10.19 L54.71,10.91 L54.78,10.91 C55.0068264,10.3817547 55.5473779,10.0590374 56.12,10.11 C56.5635669,10.0746894 56.9990241,10.2435877 57.3027741,10.568756 C57.606524,10.8939242 57.7454058,11.3398631 57.68,11.78 L57.68,14.7 L56.79,14.7 L56.79,12 C56.79,11.27 56.47,10.91 55.79,10.91 C55.4850425,10.8823072 55.1842067,10.9958619 54.9736108,11.2181576 C54.7630149,11.4404532 54.6658755,11.7469835 54.71,12.05 L54.71,14.7 L53.82,14.7 L53.85,10.19 Z" id="Path" fill="#FFFFFF"></path>
            <polygon id="Path" fill="#FFFFFF" points="59.09 8.44 60 8.44 60 14.7 59.11 14.7"></polygon>
            <path d="M61.22,12.44 C61.1655012,11.6460166 61.5581842,10.8878799 62.2381425,10.4743145 C62.9181009,10.0607491 63.7718991,10.0607491 64.4518575,10.4743145 C65.1318158,10.8878799 65.5244988,11.6460166 65.47,12.44 C65.5244988,13.2339834 65.1318158,13.9921201 64.4518575,14.4056855 C63.7718991,14.8192509 62.9181009,14.8192509 62.2381425,14.4056855 C61.5581842,13.9921201 61.1655012,13.2339834 61.22,12.44 L61.22,12.44 Z M64.55,12.44 C64.55,11.44 64.11,10.9 63.34,10.9 C62.57,10.9 62.14,11.47 62.14,12.44 C62.14,13.41 62.57,14 63.34,14 C64.11,14 64.55,13.42 64.55,12.44 Z" id="Shape" fill="#FFFFFF"></path>
            <path d="M66.4,13.42 C66.4,12.61 67,12.15 68.08,12.08 L69.3,12 L69.3,11.61 C69.3,11.14 68.98,10.87 68.37,10.87 C67.76,10.87 67.53,11.05 67.44,11.37 L66.57,11.37 C66.67,10.59 67.39,10.1 68.41,10.1 C69.43,10.1 70.18,10.66 70.18,11.61 L70.18,14.7 L69.32,14.7 L69.32,14.06 L69.25,14.06 C68.9644333,14.5265201 68.4462091,14.7990676 67.9,14.77 C67.5174681,14.8095894 67.1360575,14.6853726 66.8502051,14.4281054 C66.5643527,14.1708383 66.4007846,13.8045743 66.4,13.42 Z M69.3,13 L69.3,12.62 L68.2,12.69 C67.58,12.69 67.29,12.95 67.29,13.34 C67.29,13.73 67.65,13.98 68.13,13.98 C68.4162186,14.0105733 68.7025636,13.9234312 68.9232292,13.7386002 C69.1438948,13.5537691 69.279904,13.2871445 69.3,13 L69.3,13 Z" id="Shape" fill="#FFFFFF"></path>
            <path d="M71.35,12.44 C71.35,11.02 72.08,10.12 73.22,10.12 C73.7938126,10.0953542 74.3307041,10.4027052 74.6,10.91 L74.66,10.91 L74.66,8.44 L75.55,8.44 L75.55,14.7 L74.7,14.7 L74.7,14 L74.63,14 C74.3410558,14.5014016 73.7982936,14.8016531 73.22,14.78 C72.07,14.77 71.35,13.87 71.35,12.44 Z M72.27,12.44 C72.27,13.44 72.72,13.97 73.47,13.97 C74.22,13.97 74.68,13.39 74.68,12.45 C74.68,11.51 74.21,10.92 73.47,10.92 C72.73,10.92 72.27,11.5 72.27,12.44 Z" id="Shape" fill="#FFFFFF"></path>
            <path d="M79.23,12.44 C79.1755012,11.6460166 79.5681842,10.8878799 80.2481425,10.4743145 C80.9281009,10.0607491 81.7818991,10.0607491 82.4618575,10.4743145 C83.1418158,10.8878799 83.5344988,11.6460166 83.48,12.44 C83.5344988,13.2339834 83.1418158,13.9921201 82.4618575,14.4056855 C81.7818991,14.8192509 80.9281009,14.8192509 80.2481425,14.4056855 C79.5681842,13.9921201 79.1755012,13.2339834 79.23,12.44 L79.23,12.44 Z M82.56,12.44 C82.56,11.44 82.12,10.9 81.36,10.9 C80.6,10.9 80.15,11.47 80.15,12.44 C80.15,13.41 80.58,14 81.36,14 C82.14,14 82.56,13.42 82.56,12.44 Z" id="Shape" fill="#FFFFFF"></path>
            <path d="M84.67,10.19 L85.52,10.19 L85.52,10.91 L85.59,10.91 C85.8252625,10.3844281 86.366017,10.063981 86.94,10.11 C87.3818915,10.0779106 87.8144481,10.2482156 88.1158509,10.5729528 C88.4172536,10.8976899 88.5548907,11.3417226 88.49,11.78 L88.49,14.7 L87.61,14.7 L87.61,12 C87.61,11.27 87.29,10.91 86.61,10.91 C86.3067069,10.8855634 86.0087875,11.0005442 85.8005512,11.2224034 C85.592315,11.4442625 85.4964185,11.7488614 85.54,12.05 L85.54,14.7 L84.65,14.7 L84.67,10.19 Z" id="Path" fill="#FFFFFF"></path>
            <path d="M93.52,9.07 L93.52,10.22 L94.52,10.22 L94.52,11 L93.52,11 L93.52,13.32 C93.52,13.79 93.71,14 94.15,14 L94.49,14 L94.49,14.74 C94.330194,14.7511439 94.169806,14.7511439 94.01,14.74 C93.01,14.74 92.63,14.4 92.63,13.53 L92.63,11 L91.91,11 L91.91,10.26 L92.63,10.26 L92.63,9.07 L93.52,9.07 Z" id="Path" fill="#FFFFFF"></path>
            <path d="M95.7,8.44 L96.59,8.44 L96.59,10.92 L96.66,10.92 C96.8931672,10.3962026 97.4278446,10.0730021 98,10.11 C98.4417791,10.0849149 98.8716074,10.2588163 99.1716597,10.5840342 C99.4717119,10.9092521 99.6105077,11.3516658 99.55,11.79 L99.55,14.7 L98.66,14.7 L98.66,12 C98.66,11.28 98.33,10.92 97.66,10.92 C97.3508251,10.8956351 97.046488,11.0078931 96.8271906,11.2271906 C96.6078931,11.446488 96.4956351,11.7508251 96.52,12.06 L96.52,14.7 L95.7,14.7 L95.7,8.44 Z" id="Path" fill="#FFFFFF"></path>
            <path d="M104.76,13.48 C104.509801,14.3507092 103.657302,14.9048334 102.76,14.78 C102.15541,14.8121569 101.568797,14.5687084 101.164636,14.117913 C100.760474,13.6671176 100.582274,13.0575053 100.68,12.46 C100.60186,11.8632896 100.785994,11.2619829 101.184858,10.8113428 C101.583723,10.3607028 102.158217,10.1049054 102.76,10.11 C104.01,10.11 104.76,10.96 104.76,12.38 L104.76,12.69 L101.59,12.69 L101.59,12.74 C101.566599,13.0772765 101.688992,13.4083897 101.926136,13.6493583 C102.16328,13.890327 102.492392,14.0180017 102.83,14 C103.267643,14.0494063 103.692568,13.8330094 103.91,13.45 L104.76,13.48 Z M101.64,12 L103.91,12 C103.932602,11.6938107 103.825024,11.3922879 103.613713,11.1695543 C103.402402,10.9468207 103.106954,10.8235335 102.8,10.83 C102.489774,10.8272551 102.191598,10.9499684 101.97317,11.1702797 C101.754742,11.3905909 101.634592,11.6898086 101.64,12 Z" id="Shape" fill="#FFFFFF"></path>
        </g>
    </g>
</svg>