<?xml version="1.0" encoding="utf-8"?>
<!-- Generator: Adobe Illustrator 26.0.2, SVG Export Plug-In . SVG Version: 6.00 Build 0)  -->
<svg version="1.1" id="Layer_1" xmlns="http://www.w3.org/2000/svg" xmlns:xlink="http://www.w3.org/1999/xlink" x="0px" y="0px"
	 width="600.11px" height="142.81px" viewBox="0 0 600.11 142.81" style="enable-background:new 0 0 600.11 142.81;"
	 xml:space="preserve">
<style type="text/css">
	.st0{fill:#E11E32;}
	.st1{fill:#4BA2C3;}
</style>
<g>
	<g>
		<path class="st0" d="M467.47,72.66l-1.25-3.48l-0.01-0.03c-0.5-1.26-1.45-2.11-2.69-2.41c-1.75-0.42-3.49,0.44-4.55,1.37
			c-3.38,2.99-7.26,4.67-12.61,5.07c-9.57,0.71-18.75-5.66-19.91-10.31c4.22,0.63,10.75,1.8,17.84,0.66
			c7.86-1.26,13.98-4.44,17.68-9.19c3.01-3.87,4.39-8.82,3.78-13.58c-1.2-9.41-10.71-18.36-24.59-17.03
			c-18.36,1.78-31.4,17.05-29.7,34.79c0.82,8.54,5.1,16.2,12.06,21.57c5.85,4.52,13.22,7.01,20.76,7.01c0.81,0,1.62-0.03,2.47-0.09
			c6.55-0.64,13.45-1.97,19.49-7.42C468.31,77.72,468.67,75.7,467.47,72.66z M425.77,50.19c1.48-7.27,10.04-13.59,17.76-13.59
			c6.37,0,8.6,3.04,8.62,5.9c0.02,3.59-2.98,6.46-9.96,7.57C436.7,50.95,428.5,51.25,425.77,50.19z"/>
		<path class="st0" d="M123.47,26.57c-0.6-1.07-1.62-1.79-3.03-2.14h0c-10.76-2.68-16.66,2.46-20.34,6.46
			c-0.61-1.84-1.63-3.89-3.31-5.37c-1.9-1.68-4.25-2.38-6.98-2.1l-2.16,0.23c0,0,0,55.2,0,57.12c0,6.08,4.71,6.09,7.84,6.09
			c4.64,0,6.37-1.66,6.39-6.13c0.01-1.06,0.25-27.36,0.83-32.34c0.36-3.11,1.49-6.09,4.81-8.65c2.38-1.84,4.68-2.38,8.79-2.06
			c5.19,0.4,6.07-2.46,6.85-5l0.08-0.26C123.79,30.62,124.49,28.38,123.47,26.57z"/>
		<path class="st0" d="M170.63,26.57c-0.6-1.07-1.62-1.79-3.03-2.14h0c-10.76-2.68-16.66,2.46-20.34,6.46
			c-0.61-1.84-1.63-3.89-3.31-5.38c-1.9-1.68-4.25-2.38-6.98-2.1l-2.16,0.23c0,0,0,55.07,0,57.12c0,6.08,4.71,6.09,7.84,6.09
			c4.64,0,6.37-1.66,6.39-6.2c0.03-2.67,0.27-26.24,0.83-31.01c0.36-3.11,1.49-7.35,4.81-9.91c2.4-1.85,4.62-2.37,8.79-2.06
			c5.19,0.4,6.15-2.74,6.93-5.26l0.08-0.26C171.03,30.39,171.65,28.38,170.63,26.57z"/>
		<path class="st0" d="M333.65,24.16c-2.89-1.09-5.64-1.07-8.05,0.27c-5.3,2.94-6.82,8.73-7.32,10.61
			c-0.05,0.18-8.05,28.42-8.05,28.42l-9.43-27.9c-1.29-4.05-3.65-10.78-11.43-10.78c-5.91,0-9.46,3.79-11.62,11.13
			c-0.23,0.78-9.37,27.55-9.37,27.55s-7.8-28.25-7.85-28.42c-0.5-1.89-2.27-7.96-7.32-10.61c-2.44-1.28-5.16-1.36-8.05-0.27
			l-2.03,0.77c0,0,15.37,56.43,15.43,56.64c1.25,4.71,3.74,5.05,8.04,5.24c0.68,0.03,1.3,0.05,1.87,0.05c6,0,7.13-1.71,8.59-5.85
			c0.48-1.37,12.33-34.91,12.33-34.91s11.01,32.2,11.73,34.3c1.73,5.03,3.55,6.42,11.01,6.42c4.08,0,6.85-0.37,8.15-5.25
			c0.05-0.2,15.43-56.62,15.43-56.62L333.65,24.16z"/>
		<path class="st0" d="M206.04,23.54c-17.32,0-31.41,14.26-31.41,31.78s14.09,31.78,31.41,31.78c17.32,0,31.41-14.25,31.41-31.78
			S223.36,23.54,206.04,23.54z M223.89,55.32c0,10.04-8.01,18.21-17.85,18.21c-9.84,0-17.85-8.17-17.85-18.21
			s8.01-18.21,17.85-18.21C215.88,37.1,223.89,45.27,223.89,55.32z"/>
		<path class="st0" d="M532.32,23.66l-2.19-0.23c-7.99,0-9.99,7.41-9.99,7.41s-7.27-7.24-16.51-7.24
			c-15.82,0-27.82,13.56-27.82,31.48c0,17.65,12.03,32.01,27.3,32.01c9.78,0,14.84-7.23,14.84-7.23s-0.51,6.97,6.45,6.97
			c3.15,0,7.9-0.01,7.92-6.18L532.32,23.66z M517.89,42.35v16.26c0,8.65-5.96,14.93-14.18,14.93c-8.28,0-14.06-7.59-14.06-18.45
			c0-9.45,4.45-16.09,12.52-18.72c1.17-0.38,2.57-0.58,4.05-0.58c3.41,0,6.96,1.04,9.25,2.7C516.58,39.29,517.89,40.61,517.89,42.35
			z"/>
		<path class="st0" d="M376.01,23.6h-0.04c-9.94,0-15.4,7.45-15.4,7.45V14.8c0-1.95-0.31-8.6-4.35-12.24
			c-2.05-1.85-4.64-2.63-7.72-2.31l-2.16,0.22c0,0,0,77.71,0,80.28c0,6.08,4.71,6.09,7.84,6.09c4.64,0,6.37-1.67,6.39-6.16V53
			c0-9.48,3.71-16.51,14.17-16.51c9.39,0,11.26,6.81,11.26,10.87l-0.13,33.41c0.02,6.08,4.71,6.09,7.84,6.09
			c4.64,0,6.37-1.67,6.39-6.17c0,0,0-18.37,0-25.19C400.09,39.84,398.6,23.6,376.01,23.6z"/>
		<path class="st0" d="M597.92,0.07L597.92,0.07c-3.12-0.32-5.75,0.47-7.82,2.34c-4.09,3.69-4.41,10.42-4.41,12.4v16.03
			c0,0-4.2-7.2-14.26-7.2c-16.38,0-27.8,13.55-27.8,31.46c0,17.64,12.41,31.99,27.67,31.99c10.35,0,14.44-7.25,14.44-7.25
			s-0.05,7,6.45,7c3.15,0,7.9-0.01,7.92-6.18V0.29L597.92,0.07z M585.69,42.37v16.25c0,10.04-4.64,14.92-14.17,14.92
			c-8.28,0-14.06-7.58-14.06-18.44c0-9.44,4.44-16.08,12.51-18.71c1.17-0.38,2.57-0.58,4.05-0.58c3.41,0,6.95,1.04,9.25,2.7
			C584.38,39.31,585.69,40.63,585.69,42.37z"/>
		<g>
			<g id="XMLID_1_">
				<g>
					<path class="st0" d="M27.52,53.51c-0.5,1.31,0.32,2.07,1.67,1.6l8.73-3.11c0.8-0.3,1.49-0.33,2.32,0l8.77,3.07
						c1.4,0.55,2.23-0.25,1.72-1.73L40.27,22.68c-0.33-1.11-1.94-1.11-2.26,0.07L27.52,53.51z M7.04,86.84H0.11L29.1,6.27
						c0,0,1.23-5.27,7.41-5.5c0.03,0,0.17,0,0.38,0v0c0.01,0,0.02,0,0.03,0l0,0c0.72,0,2.11,0,2.21,0v0.01h2.79l0-0.01
						c0.12,0,0.24,0,0.36,0c5.25,0.19,6.65,4.61,6.65,4.61l29.36,81.46h-7.08l0,0.01h-2.74c-5.21,0.18-6.88-3.79-7.63-5.45
						l-2.9-6.65c-1.61-4.05-5.24-6.8-9.5-6.8H28.97c-4.27,0-7.87,2.6-9.51,6.8l-2.17,6.58c-0.6,1.71-1.68,5.68-7.55,5.51H7.07H7.04z
						"/>
				</g>
				<g>
				</g>
			</g>
		</g>
	</g>
	<g>
		<path class="st1" d="M346.39,130.12c0-7.15,4.85-12.64,12.04-12.64c4.4,0,7,1.8,8.84,4.2l-2.5,2.25c-1.6-2.2-3.65-3.1-6.15-3.1
			c-5.1,0-8.34,3.95-8.34,9.29c0,5.35,3.25,9.34,8.34,9.34c2.5,0,4.55-1,6.15-3.15l2.5,2.3c-1.85,2.4-4.45,4.2-8.84,4.2
			C351.23,142.81,346.39,137.26,346.39,130.12z"/>
		<path class="st1" d="M372.57,142.21v-24.13h3.75v3.85c1.95-2.5,4.75-4.4,8.05-4.4v3.85c-0.45-0.05-0.9-0.1-1.45-0.1
			c-2.35,0-5.5,1.9-6.6,3.85v17.09H372.57z"/>
		<path class="st1" d="M387.66,130.12c0-7,5-12.64,11.89-12.64c7.3,0,11.59,5.7,11.59,12.94v0.95h-19.49
			c0.3,4.55,3.45,8.35,8.64,8.35c2.8,0,5.55-1.1,7.5-3.1l1.8,2.45c-2.45,2.4-5.7,3.75-9.59,3.75
			C392.81,142.81,387.66,137.66,387.66,130.12z M399.5,120.57c-5.15,0-7.69,4.35-7.9,8h15.84C407.4,125.02,405,120.57,399.5,120.57z
			"/>
		<path class="st1" d="M434.68,142.21v-3.6c-1.8,2.45-4.75,4.2-8.14,4.2c-6.3,0-10.74-4.8-10.74-12.64
			c0-7.74,4.45-12.69,10.74-12.69c3.25,0,6.2,1.6,8.14,4.25v-12.84h3.75v33.33H434.68z M434.68,135.61v-10.89
			c-1.3-2.1-4.25-3.9-7.2-3.9c-4.9,0-7.79,4-7.79,9.34c0,5.35,2.9,9.29,7.79,9.29C430.43,139.46,433.38,137.71,434.68,135.61z"/>
		<path class="st1" d="M445.27,112.13c0-1.4,1.15-2.55,2.55-2.55c1.4,0,2.5,1.15,2.5,2.55c0,1.4-1.1,2.5-2.5,2.5
			C446.42,114.63,445.27,113.53,445.27,112.13z M445.92,142.21v-24.13h3.75v24.13H445.92z"/>
		<path class="st1" d="M457.92,137.16v-15.79h-4v-3.3h4v-6.6h3.8v6.6h4.9v3.3h-4.9v14.99c0,1.8,0.8,3.1,2.4,3.1
			c1.1,0,2.05-0.5,2.55-1.05l1.1,2.85c-0.95,0.9-2.3,1.55-4.45,1.55C459.71,142.81,457.92,140.76,457.92,137.16z"/>
		<path class="st1" d="M501.09,142.21v-3.4c-1.85,2.1-5,4-8.59,4c-5.05,0-7.7-2.5-7.7-7.7v-17.04h3.75v15.89
			c0,4.25,2.15,5.5,5.45,5.5c2.9,0,5.7-1.7,7.1-3.65v-17.74h3.75v24.13H501.09z"/>
		<path class="st1" d="M528.67,142.21v-15.79c0-4.3-2.2-5.6-5.45-5.6c-2.95,0-5.7,1.8-7.15,3.75v17.64h-3.75v-24.13h3.75v3.5
			c1.7-2.05,5-4.1,8.64-4.1c5,0,7.65,2.55,7.65,7.79v16.94H528.67z"/>
		<path class="st1" d="M539.26,112.13c0-1.4,1.15-2.55,2.55-2.55c1.4,0,2.5,1.15,2.5,2.55c0,1.4-1.1,2.5-2.5,2.5
			C540.41,114.63,539.26,113.53,539.26,112.13z M539.91,142.21v-24.13h3.75v24.13H539.91z"/>
		<path class="st1" d="M549.76,130.12c0-7,4.6-12.64,11.94-12.64s11.94,5.65,11.94,12.64c0,7-4.6,12.69-11.94,12.69
			S549.76,137.11,549.76,130.12z M569.69,130.12c0-4.9-2.85-9.29-7.99-9.29c-5.15,0-8,4.4-8,9.29c0,4.95,2.85,9.34,8,9.34
			C566.85,139.46,569.69,135.06,569.69,130.12z"/>
		<path class="st1" d="M596.08,142.21v-15.79c0-4.3-2.2-5.6-5.45-5.6c-2.95,0-5.7,1.8-7.15,3.75v17.64h-3.75v-24.13h3.75v3.5
			c1.7-2.05,5-4.1,8.64-4.1c5,0,7.65,2.55,7.65,7.79v16.94H596.08z"/>
	</g>
</g>
</svg>
