<?xml version="1.0" encoding="UTF-8"?>
<svg width="135px" height="40px" viewBox="0 0 135 40" version="1.1" xmlns="http://www.w3.org/2000/svg" xmlns:xlink="http://www.w3.org/1999/xlink">
    <!-- Generator: Sketch 61.2 (89653) - https://sketch.com -->
    <title>google-play-badge</title>
    <desc>Created with Sketch.</desc>
    <defs>
        <linearGradient x1="61.0453132%" y1="4.94615078%" x2="26.512955%" y2="71.8787395%" id="linearGradient-1">
            <stop stop-color="#00A0FF" offset="0%"></stop>
            <stop stop-color="#00A1FF" offset="1%"></stop>
            <stop stop-color="#00BEFF" offset="26%"></stop>
            <stop stop-color="#00D2FF" offset="51%"></stop>
            <stop stop-color="#00DFFF" offset="76%"></stop>
            <stop stop-color="#00E3FF" offset="100%"></stop>
        </linearGradient>
        <linearGradient x1="107.684729%" y1="50%" x2="-130.640394%" y2="50%" id="linearGradient-2">
            <stop stop-color="#FFE000" offset="0%"></stop>
            <stop stop-color="#FFBD00" offset="41%"></stop>
            <stop stop-color="#FFA500" offset="78%"></stop>
            <stop stop-color="#FF9C00" offset="100%"></stop>
        </linearGradient>
        <linearGradient x1="86.2709832%" y1="30.8725537%" x2="-50.1798561%" y2="136.108936%" id="linearGradient-3">
            <stop stop-color="#FF3A44" offset="0%"></stop>
            <stop stop-color="#C31162" offset="100%"></stop>
        </linearGradient>
        <linearGradient x1="-18.82494%" y1="-11.9103989%" x2="42.0863309%" y2="35.0790955%" id="linearGradient-4">
            <stop stop-color="#32A071" offset="0%"></stop>
            <stop stop-color="#2DA771" offset="7%"></stop>
            <stop stop-color="#15CF74" offset="48%"></stop>
            <stop stop-color="#06E775" offset="80%"></stop>
            <stop stop-color="#00F076" offset="100%"></stop>
        </linearGradient>
    </defs>
    <g id="Page-1" stroke="none" stroke-width="1" fill="none" fill-rule="evenodd">
        <g id="google-play-badge" fill-rule="nonzero">
            <rect id="Rectangle" fill="#000000" x="0" y="0" width="135" height="40" rx="5"></rect>
            <path d="M130,0.8 C132.319596,0.8 134.2,2.68040405 134.2,5 L134.2,35 C134.2,37.3195959 132.319596,39.2 130,39.2 L5,39.2 C2.68040405,39.2 0.8,37.3195959 0.8,35 L0.8,5 C0.8,2.68040405 2.68040405,0.8 5,0.8 L130,0.8 M130,0 L5,0 C2.23857625,0 0,2.23857625 0,5 L0,35 C0,37.7614237 2.23857625,40 5,40 L130,40 C132.761424,40 135,37.7614237 135,35 L135,5 C135,2.23857625 132.761424,0 130,0 Z" id="Shape" fill="#A6A6A6"></path>
            <path d="M47.42,10.24 C47.4531747,10.9810449 47.182257,11.703492 46.67,12.24 C46.0954216,12.8332072 45.2951824,13.1533029 44.47,13.12 C43.6405789,13.1384846 42.840533,12.812674 42.26,12.22 C41.0480699,10.9803246 41.0480699,8.99967541 42.26,7.76 C43.1709107,6.86991481 44.5271184,6.61365464 45.7,7.11 C46.0606018,7.25823045 46.3822404,7.48748348 46.64,7.78 L46.11,8.31 C45.7073541,7.82495058 45.0995877,7.55812631 44.47,7.59 C43.3916641,7.59745842 42.4507006,8.32321534 42.1695842,9.36429056 C41.8884679,10.4053658 42.3362296,11.5061132 43.2642473,12.0553373 C44.192265,12.6045614 45.3726551,12.4673948 46.15,11.72 C46.4554502,11.3851023 46.6325669,10.9529375 46.65,10.5 L44.47,10.5 L44.47,9.78 L47.38,9.78 C47.4027696,9.93236612 47.4161282,10.0859906 47.42,10.24 L47.42,10.24 Z" id="Path" fill="#FFFFFF"></path>
            <path d="M44.47,13.23 C43.1666849,13.2156194 41.9980321,12.4239955 41.501217,11.2190009 C41.0044019,10.0140064 41.2755393,8.62876196 42.19,7.7 C42.7903548,7.09052206 43.6146388,6.75430099 44.47,6.77 C44.9070141,6.76528127 45.339999,6.85392386 45.74,7.03 C46.124057,7.1760726 46.4671271,7.41279103 46.74,7.72 L46.79,7.79 L46.13,8.46 L46,8.38 C45.6112146,7.92107762 45.0307016,7.66964524 44.43,7.7 C43.1597451,7.7 42.13,8.72974508 42.13,10 C42.13,11.2702549 43.1597451,12.3 44.43,12.3 C45.0283834,12.3142804 45.6065364,12.0830192 46.03,11.66 C46.2992085,11.3720952 46.4646155,11.0025689 46.5,10.61 L44.37,10.61 L44.37,9.69 L47.46,9.69 L47.46,9.77 C47.4694731,9.92652347 47.4694731,10.0834765 47.46,10.24 C47.4955384,11.0108505 47.2136361,11.76259 46.68,12.32 C46.1011774,12.9163478 45.3009118,13.2458689 44.47,13.23 Z M44.47,6.97 C43.2221681,6.93207395 42.0812711,7.67087693 41.6053808,8.82502215 C41.1294905,9.97916736 41.4180859,11.3073949 42.33,12.16 C42.8934163,12.7318351 43.6674034,13.0464934 44.47,13.03 C45.268572,13.0624714 46.0431885,12.7533521 46.6,12.18 C47.0950055,11.6588834 47.3551707,10.957883 47.32,10.24 C47.3294677,10.1235254 47.3294677,10.0064746 47.32,9.89 L44.57,9.89 L44.57,10.41 L46.76,10.41 L46.76,10.52 C46.7364043,10.9950589 46.5491418,11.4473157 46.23,11.8 C45.7652365,12.2602433 45.133962,12.5127531 44.48,12.5 C43.4792602,12.4620093 42.5951164,11.8373017 42.2250496,10.9067245 C41.8549828,9.97614717 42.0686525,8.91486725 42.77,8.2 C43.2237383,7.74780658 43.8394226,7.49577207 44.48,7.5 C45.1005288,7.4769688 45.7011949,7.72087564 46.13,8.17 L46.51,7.78 C46.2721116,7.53433437 45.9861703,7.34030275 45.67,7.21 C45.2885721,7.0586662 44.8801526,6.98719279 44.47,7 L44.47,6.97 Z" id="Shape" fill="#FFFFFF"></path>
            <polygon id="Path" fill="#FFFFFF" points="52 7.74 49.3 7.74 49.3 9.64 51.76 9.64 51.76 10.36 49.3 10.36 49.3 12.26 52 12.26 52 13 48.52 13 48.52 7 52 7"></polygon>
            <path d="M52.13,13.1 L48.42,13.1 L48.42,6.9 L52.13,6.9 L52.13,7.84 L49.4,7.84 L49.4,9.54 L51.86,9.54 L51.86,10.46 L49.4,10.46 L49.4,12.16 L52.13,12.16 L52.13,13.1 Z M48.62,12.9 L51.93,12.9 L51.93,12.36 L49.2,12.36 L49.2,10.26 L51.66,10.26 L51.66,9.74 L49.2,9.74 L49.2,7.64 L51.93,7.64 L51.93,7.1 L48.62,7.1 L48.62,12.9 Z" id="Shape" fill="#FFFFFF"></path>
            <polygon id="Path" fill="#FFFFFF" points="55.28 13 54.51 13 54.51 7.74 52.83 7.74 52.83 7 57 7 57 7.74 55.28 7.74"></polygon>
            <path d="M55.38,13.1 L54.38,13.1 L54.38,7.84 L52.73,7.84 L52.73,6.9 L57.05,6.9 L57.05,7.84 L55.38,7.84 L55.38,13.1 Z M54.61,12.9 L55.18,12.9 L55.18,7.64 L56.85,7.64 L56.85,7.1 L52.93,7.1 L52.93,7.64 L54.61,7.64 L54.61,12.9 Z" id="Shape" fill="#FFFFFF"></path>
            <polygon id="Path" fill="#FFFFFF" points="59.94 13 59.94 7 60.71 7 60.71 13"></polygon>
            <path d="M60.81,13.1 L59.81,13.1 L59.81,6.9 L60.81,6.9 L60.81,13.1 Z M60,12.9 L60.57,12.9 L60.57,7.1 L60,7.1 L60,12.9 Z" id="Shape" fill="#FFFFFF"></path>
            <polygon id="Path" fill="#FFFFFF" points="64.13 13 63.36 13 63.36 7.74 61.68 7.74 61.68 7 65.8 7 65.8 7.74 64.13 7.74"></polygon>
            <path d="M64.23,13.1 L63.23,13.1 L63.23,7.84 L61.58,7.84 L61.58,6.9 L65.9,6.9 L65.9,7.84 L64.23,7.84 L64.23,13.1 Z M63.46,12.9 L64,12.9 L64,7.64 L65.7,7.64 L65.7,7.1 L61.78,7.1 L61.78,7.64 L63.46,7.64 L63.46,12.9 Z" id="Shape" fill="#FFFFFF"></path>
            <path d="M73.61,12.22 C73.026689,12.8037876 72.2352634,13.1317962 71.41,13.1317962 C70.5847366,13.1317962 69.793311,12.8037876 69.21,12.22 C68.0365537,10.9725973 68.0365537,9.02740265 69.21,7.78 C69.7814921,7.17897422 70.5809257,6.84829942 71.41,6.87 C72.2374575,6.85691055 73.0335694,7.18621139 73.61,7.78 C74.190918,8.37091188 74.5082932,9.17156292 74.49,10 C74.5165237,10.8298939 74.1979114,11.6336659 73.61,12.22 L73.61,12.22 Z M69.78,11.72 C70.2103002,12.1560579 70.7973788,12.4015225 71.41,12.4015225 C72.0226212,12.4015225 72.6096998,12.1560579 73.04,11.72 C73.9346528,10.7478399 73.9346528,9.25216008 73.04,8.28 C72.6096998,7.84394215 72.0226212,7.59847754 71.41,7.59847754 C70.7973788,7.59847754 70.2103002,7.84394215 69.78,8.28 C68.8853472,9.25216008 68.8853472,10.7478399 69.78,11.72 L69.78,11.72 Z" id="Shape" fill="#FFFFFF"></path>
            <path d="M71.41,13.23 C70.553839,13.2550871 69.7277821,12.9130195 69.14,12.29 C67.9284769,11.0036917 67.9284769,8.99630832 69.14,7.71 C69.7277821,7.08698052 70.553839,6.74491292 71.41,6.77 C72.266161,6.74491292 73.0922179,7.08698052 73.68,7.71 C74.8915231,8.99630832 74.8915231,11.0036917 73.68,12.29 L73.68,12.29 C73.0922179,12.9130195 72.266161,13.2550871 71.41,13.23 L71.41,13.23 Z M71.41,6.97 C70.6075401,6.94912688 69.8337263,7.2688246 69.28,7.85 C68.1446281,9.05849567 68.1446281,10.9415043 69.28,12.15 C69.8432998,12.717938 70.6100874,13.037395 71.41,13.037395 C72.2099126,13.037395 72.9767002,12.717938 73.54,12.15 L73.54,12.15 C74.0991914,11.5756727 74.4052816,10.8014445 74.39,10 C74.4026197,9.19712024 74.0928486,8.42269247 73.53,7.85 C72.9741295,7.2814147 72.2046998,6.9729169 71.41,7 L71.41,6.97 Z M71.41,12.5 C70.7689246,12.5117636 70.1522806,12.254224 69.71,11.79 L69.71,11.79 C68.7773195,10.7789068 68.7773195,9.2210932 69.71,8.21 C70.159001,7.75562959 70.7712087,7.49991071 71.41,7.49991071 C72.0487913,7.49991071 72.660999,7.75562959 73.11,8.21 C74.0426805,9.2210932 74.0426805,10.7789068 73.11,11.79 C72.6677194,12.254224 72.0510754,12.5117636 71.41,12.5 Z M69.85,11.65 C70.2629298,12.0652569 70.8243813,12.2987424 71.41,12.2987424 C71.9956187,12.2987424 72.5570702,12.0652569 72.97,11.65 C73.8218973,10.7149384 73.8218973,9.28506159 72.97,8.35 C72.5570702,7.93474309 71.9956187,7.70125755 71.41,7.70125755 C70.8243813,7.70125755 70.2629298,7.93474309 69.85,8.35 C68.9981027,9.28506159 68.9981027,10.7149384 69.85,11.65 L69.85,11.65 Z" id="Shape" fill="#FFFFFF"></path>
            <polygon id="Path" fill="#FFFFFF" points="75.58 13 75.58 7 76.51 7 79.43 11.67 79.43 11.67 79.43 10.51 79.43 7 80.2 7 80.2 13 79.4 13 76.35 8.11 76.35 8.11 76.35 9.26 76.35 13"></polygon>
            <path d="M80.3,13.1 L79.3,13.1 L79.3,13.05 L76.41,8.42 L76.41,9.26 L76.41,13.1 L75.41,13.1 L75.41,6.9 L76.5,6.9 L79.28,11.36 L79.28,10.51 L79.28,6.9 L80.28,6.9 L80.3,13.1 Z M79.45,12.9 L80.1,12.9 L80.1,7.1 L79.53,7.1 L79.53,10.51 L79.53,11.77 L79.33,11.77 L76.46,7.1 L75.67,7.1 L75.67,12.9 L76.25,12.9 L76.25,9.26 L76.25,8.01 L76.44,8.01 L76.44,8.01 L79.45,12.9 Z" id="Shape" fill="#FFFFFF"></path>
            <path d="M68.14,21.75 C65.7872765,21.7555293 63.8844985,23.6672686 63.8900115,26.0199921 C63.8955484,28.3727156 65.8072843,30.2754972 68.1600078,30.2699885 C70.5127313,30.2644558 72.4155163,28.3527235 72.41,26 C72.426473,24.8643738 71.9812316,23.7707097 71.1762551,22.9695037 C70.3712787,22.1682976 69.2755364,21.7281956 68.14,21.75 L68.14,21.75 Z M68.14,28.58 C67.0832273,28.6539053 66.088673,28.0743135 65.6320213,27.1184371 C65.1753697,26.1625607 65.3494358,25.0246828 66.0709659,24.249038 C66.7924959,23.4733932 67.9148379,23.2176324 68.9011878,23.6040831 C69.8875378,23.9905338 70.5374189,24.9406494 70.54,26 C70.5725428,26.6626719 70.3360327,27.3103928 69.8841403,27.7961771 C69.432248,28.2819613 68.8032921,28.5646164 68.14,28.58 L68.14,28.58 Z M58.82,21.75 C56.4672765,21.7555293 54.5644985,23.6672686 54.5700115,26.0199921 C54.5755484,28.3727156 56.4872843,30.2754972 58.8400078,30.2699885 C61.1927313,30.2644558 63.0955163,28.3527235 63.09,26 C63.106473,24.8643738 62.6612316,23.7707097 61.8562551,22.9695037 C61.0512787,22.1682976 59.9555364,21.7281956 58.82,21.75 L58.82,21.75 Z M58.82,28.58 C57.7632273,28.6539053 56.768673,28.0743135 56.3120213,27.1184371 C55.8553697,26.1625607 56.0294358,25.0246828 56.7509659,24.249038 C57.4724959,23.4733932 58.5948379,23.2176324 59.5811878,23.6040831 C60.5675378,23.9905338 61.2174189,24.9406494 61.22,26 C61.2525428,26.6626719 61.0160327,27.3103928 60.5641403,27.7961771 C60.112248,28.2819613 59.4832921,28.5646164 58.82,28.58 L58.82,28.58 Z M47.74,23.06 L47.74,24.86 L52.06,24.86 C51.9922634,25.7078038 51.6398446,26.5077945 51.06,27.13 C50.1836518,28.0228625 48.9699725,28.5025202 47.72,28.45 C45.0690332,28.45 42.92,26.3009668 42.92,23.65 C42.92,20.9990332 45.0690332,18.85 47.72,18.85 C48.9404476,18.8318498 50.1188954,19.2953247 51,20.14 L52.27,18.87 C51.0659807,17.6791542 49.4332385,17.0231739 47.74,17.05 C45.3189608,16.955779 43.0403936,18.1936718 41.801854,20.2760571 C40.5633145,22.3584423 40.5633145,24.9515577 41.801854,27.0339429 C43.0403936,29.1163282 45.3189608,30.354221 47.74,30.26 C49.4701987,30.3291046 51.1475475,29.655982 52.35,28.41 C53.4001185,27.2564101 53.9596631,25.7391832 53.91,24.18 C53.9135793,23.8047255 53.8834584,23.4298875 53.82,23.06 L47.74,23.06 Z M93.05,24.46 C92.5160796,22.8892101 91.0679278,21.811053 89.41,21.7499923 C88.3043635,21.7478383 87.2471451,22.2034076 86.4893794,23.0085336 C85.7316138,23.8136596 85.3408955,24.8965231 85.41,26 C85.3924407,27.8748194 86.611123,29.5374987 88.4042599,30.0851449 C90.1973968,30.632791 92.1370825,29.9347165 93.17,28.37 L91.72,27.37 C91.280167,28.103094 90.4848748,28.5483054 89.63,28.54 C88.742835,28.5766297 87.9244125,28.0641224 87.57,27.2499923 L93.26,24.9 L93.05,24.46 Z M87.25,25.88 C87.2090571,25.2525116 87.4223869,24.634951 87.8419025,24.1665232 C88.2614182,23.6980954 88.8518111,23.4182257 89.48,23.39 C90.1387659,23.3497893 90.7574492,23.7083892 91.05,24.3 L87.25,25.88 Z M82.63,30 L84.5,30 L84.5,17.5 L82.63,17.5 L82.63,30 Z M79.57,22.7 L79.5,22.7 C78.9347066,22.0562073 78.116706,21.6910285 77.26,21.7 C74.9901469,21.8100717 73.2063371,23.6824796 73.2063371,25.955 C73.2063371,28.2275204 74.9901469,30.0999283 77.26,30.21 C78.1183976,30.2272187 78.9397171,29.8605582 79.5,29.21 L79.57,29.21 L79.57,29.82 C79.57,31.45 78.7,32.32 77.3,32.32 C76.3435146,32.2989876 75.4943492,31.702597 75.15,30.81 L73.53,31.48 C74.1431493,33.0199895 75.6425851,34.0222649 77.3,34 C79.49,34 81.3,32.71 81.3,29.57 L81.3,22 L79.57,22 L79.57,22.7 Z M77.42,28.58 C76.0600866,28.4952122 75.0005459,27.367554 75.0005459,26.005 C75.0005459,24.642446 76.0600866,23.5147878 77.42,23.43 C78.0670204,23.4579218 78.6750106,23.747221 79.1047995,24.231676 C79.5345883,24.7161309 79.7493771,25.3542625 79.7,26 C79.7551348,26.6480494 79.5426575,27.2904311 79.1119703,27.7777877 C78.6812831,28.2651443 78.0699104,28.5550138 77.42,28.58 L77.42,28.58 Z M101.81,17.5 L97.33,17.5 L97.33,30 L99.2,30 L99.2,25.26 L101.81,25.26 C103.262684,25.3643638 104.651974,24.648509 105.41013,23.404973 C106.168286,22.161437 106.168286,20.598563 105.41013,19.355027 C104.651974,18.111491 103.262684,17.3956362 101.81,17.5 L101.81,17.5 Z M101.81,23.5 L99.2,23.5 L99.2,19.24 L101.85,19.24 C102.614548,19.24 103.32102,19.6478817 103.703294,20.31 C104.085569,20.9721183 104.085569,21.7878817 103.703294,22.45 C103.32102,23.1121183 102.614548,23.52 101.85,23.52 L101.81,23.5 Z M113.35,21.71 C111.958089,21.6241747 110.648702,22.3752042 110.02,23.62 L111.67,24.31 C112.010603,23.695923 112.680401,23.3394806 113.38,23.4 C113.859528,23.3439946 114.341454,23.4829701 114.717528,23.7857102 C115.093603,24.0884503 115.332299,24.5295749 115.38,25.01 L115.38,25.13 C114.778663,24.8139168 114.109348,24.6491623 113.43,24.65 C111.65,24.65 109.83,25.65 109.83,27.47 C109.865569,28.2515813 110.216509,28.9853449 110.802624,29.5036142 C111.38874,30.0218835 112.159942,30.280368 112.94,30.22 C113.895412,30.2728479 114.805111,29.8065317 115.32,29 L115.38,29 L115.38,30 L117.18,30 L117.18,25.19 C117.18,23 115.52,21.73 113.39,21.73 L113.35,21.71 Z M113.12,28.56 C112.51,28.56 111.66,28.25 111.66,27.5 C111.66,26.5 112.72,26.16 113.66,26.16 C114.254042,26.1453419 114.841131,26.2903874 115.36,26.58 C115.230157,27.7031043 114.29036,28.5574651 113.16,28.58 L113.12,28.56 Z M123.74,22 L121.6,27.42 L121.54,27.42 L119.32,22 L117.32,22 L120.65,29.58 L118.75,33.79 L120.7,33.79 L125.82,22 L123.74,22 Z M106.94,30 L108.8,30 L108.8,17.5 L106.94,17.5 L106.94,30 Z" id="Shape" fill="#FFFFFF"></path>
            <path d="M10.44,7.54 C10.1104694,7.92961949 9.94232908,8.43046284 9.97,8.94 L9.97,31.06 C9.93597397,31.5703792 10.1048935,32.0735438 10.44,32.46 L10.51,32.54 L22.9,20.15 L22.9,19.85 L10.51,7.47 L10.44,7.54 Z" id="Path" fill="url(#linearGradient-1)"></path>
            <path d="M27,24.28 L22.9,20.15 L22.9,19.85 L27,15.72 L27.09,15.78 L32,18.56 C33.4,19.35 33.4,20.65 32,21.45 L27.11,24.23 L27,24.28 Z" id="Path" fill="url(#linearGradient-2)"></path>
            <path d="M27.12,24.22 L22.9,20 L10.44,32.46 C11.0230326,32.9789708 11.89324,33.0083981 12.51,32.53 L27.12,24.22" id="Path" fill="url(#linearGradient-3)"></path>
            <path d="M27.12,15.78 L12.51,7.48 C11.8969646,6.9947215 11.0238977,7.02002779 10.44,7.54 L22.9,20 L27.12,15.78 Z" id="Path" fill="url(#linearGradient-4)"></path>
            <path d="M27,24.13 L12.51,32.38 C11.9181542,32.8266792 11.1018458,32.8266792 10.51,32.38 L10.51,32.38 L10.44,32.45 L10.44,32.45 L10.51,32.53 L10.51,32.53 C11.1018458,32.9766792 11.9181542,32.9766792 12.51,32.53 L27.12,24.22 L27,24.13 Z" id="Path" fill="#000000" opacity="0.2"></path>
            <path d="M10.44,32.32 C10.1187941,31.9233599 9.96138192,31.4189256 10,30.91 L10,31.06 C9.96597397,31.5703792 10.1348935,32.0735438 10.47,32.46 L10.54,32.39 L10.44,32.32 Z" id="Path" fill="#000000" opacity="0.12"></path>
            <path d="M32,21.3 L27,24.13 L27.09,24.22 L32,21.44 C32.5903954,21.1903582 32.9970603,20.6379078 33.06,20 L33.06,20 C32.9332082,20.5771002 32.5397617,21.059629 32,21.3 Z" id="Path" fill="#000000" opacity="0.12"></path>
            <path d="M12.51,7.62 L32,18.7 C32.5397617,18.940371 32.9332082,19.4228998 33.06,20 L33.06,20 C32.9970603,19.3620922 32.5903954,18.8096418 32,18.56 L12.51,7.48 C11.12,6.68 9.97,7.34 9.97,8.94 L9.97,9.09 C10,7.49 11.12,6.83 12.51,7.62 Z" id="Path" fill="#FFFFFF" opacity="0.25"></path>
        </g>
    </g>
</svg>